<svg width="39" height="38" viewBox="0 0 39 38" fill="none" xmlns="http://www.w3.org/2000/svg">
<path fill-rule="evenodd" clip-rule="evenodd" d="M1 6C1.55228 6 2 6.44772 2 7V36H29C29.5523 36 30 36.4477 30 37C30 37.5523 29.5523 38 29 38H1C0.447715 38 0 37.5523 0 37V7C0 6.44772 0.447715 6 1 6Z" fill="#4351DE"/>
<path fill-rule="evenodd" clip-rule="evenodd" d="M8 1C8 0.447715 8.44772 0 9 0H38C38.5523 0 39 0.447715 39 1V30C39 30.5523 38.5523 31 38 31C37.4477 31 37 30.5523 37 30V2H9C8.44772 2 8 1.55228 8 1Z" fill="#4351DE"/>
<path d="M14 25.2198C14 26.4506 14.5911 27 15.9071 27H19.2416C23.6691 27 26 24.4176 26 19.5055C26 14.5824 23.6691 12 19.2416 12H15.9071C14.5911 12 14 12.5495 14 13.7802V25.2198ZM16.5204 24.8901V14.0989H18.9963C21.974 14.0989 23.4126 15.8571 23.4126 19.5055C23.4126 23.1429 21.9851 24.8901 18.9963 24.8901H16.5204Z" fill="#030047"/>
</svg>
